<svg width="25" height="24" viewBox="0 0 25 24" fill="none" xmlns="http://www.w3.org/2000/svg">
<path d="M14.4062 7.41127L8.31563 5.12689C7.79375 4.93314 7.21562 4.96127 6.71875 5.21127L5.28437 5.92689C4.9375 6.10189 4.9125 6.58627 5.2375 6.79564L9.82812 9.74877L6.75 11.3206L4.93125 10.5113C4.65938 10.3894 4.34375 10.3956 4.07812 10.53L3.07187 11.0331C2.78125 11.18 2.70312 11.5581 2.91563 11.805L5.2 14.4706C5.39062 14.6925 5.66875 14.8206 5.95937 14.8206H10.2625C10.4187 14.8206 10.5719 14.7831 10.7094 14.7144L19.2375 10.4519C20.6906 9.72377 21.8156 8.47377 22.3875 6.95189C22.6844 6.16439 22.1 5.32064 21.2563 5.32064H19.4625C18.8312 5.32064 18.2063 5.47064 17.6438 5.75814L14.4062 7.41127ZM2.5 18.8206C2.5 19.3738 2.94687 19.8206 3.5 19.8206H21.5C22.0531 19.8206 22.5 19.3738 22.5 18.8206C22.5 18.2675 22.0531 17.8206 21.5 17.8206H3.5C2.94687 17.8206 2.5 18.2675 2.5 18.8206Z" fill="white"/>
</svg>
