<svg width="1920" height="692" viewBox="0 0 1920 692" fill="none" xmlns="http://www.w3.org/2000/svg">
<path d="M1694.79 69.8772C1686.17 69.8778 1677.59 70.9856 1669.25 73.1735C1662.56 54.0099 1650.66 37.0912 1634.88 24.3184C1619.11 11.5456 1600.09 3.42497 1579.95 0.868899C1559.81 -1.68717 1539.36 1.42265 1520.9 9.8489C1502.43 18.2752 1486.68 31.6839 1475.42 48.5686C1469.84 44.9167 1463.53 42.5195 1456.94 41.5427C1450.34 40.5659 1443.61 41.0327 1437.21 42.9108C1430.81 44.789 1424.9 48.0337 1419.88 52.421C1414.85 56.8082 1410.84 62.2334 1408.12 68.3217C1396.83 62.8461 1384.39 60.1454 1371.84 60.444C1359.29 60.7426 1346.99 64.0319 1335.97 70.0385C1324.94 76.045 1315.51 84.5955 1308.46 94.9794C1301.4 105.363 1296.93 117.281 1295.41 129.741C1283.95 114.162 1268.45 102.008 1250.58 94.5935C1232.72 87.1789 1213.17 84.7846 1194.05 87.6692C1174.92 90.5538 1156.95 98.6077 1142.07 110.961C1127.18 123.315 1115.96 139.499 1109.6 157.766C1095.38 154.018 1080.49 153.537 1066.05 156.36C1051.6 159.183 1037.99 165.237 1026.22 174.067C1014.45 182.898 1004.83 194.277 998.087 207.352C991.34 220.428 987.638 234.86 987.259 249.569C976.01 244.129 963.696 241.251 951.202 241.14C938.707 241.029 926.344 243.688 915 248.927C908.471 238.546 898.815 230.507 887.422 225.968C876.03 221.43 863.491 220.626 851.613 223.673C839.734 226.72 829.131 233.461 821.33 242.923C813.53 252.385 808.935 264.08 808.21 276.322C800.276 272.96 791.469 272.248 783.098 274.289C774.726 276.331 767.236 281.018 761.741 287.655C748.73 280.157 733.415 277.709 718.716 280.778C718.63 268.442 715.651 256.298 710.018 245.322C704.386 234.345 696.257 224.844 686.285 217.581C676.312 210.317 664.775 205.495 652.601 203.501C640.426 201.507 627.953 202.397 616.185 206.099C616.469 204.309 616.815 202.544 617 200.717C619.164 179.26 613.582 157.737 601.263 140.036C588.944 122.335 570.701 109.624 549.829 104.199C528.957 98.7738 506.833 100.992 487.454 110.454C468.075 119.916 452.719 135.996 444.161 155.791C437.004 152.187 429.206 150.033 421.215 149.455C413.223 148.876 405.196 149.884 397.595 152.42C389.995 154.955 382.971 158.969 376.927 164.23C370.884 169.492 365.941 175.896 362.383 183.075C350.701 174.433 336.311 170.259 321.818 171.307C307.326 172.355 293.687 178.558 283.37 188.791C276.619 175.01 267.009 162.826 255.181 153.05C243.352 143.274 229.577 136.129 214.772 132.093C199.967 128.056 184.472 127.219 169.319 129.639C154.165 132.058 139.701 137.678 126.889 146.124C127.119 144.232 127.23 142.327 127.222 140.42C127.227 132.344 125.23 124.392 121.411 117.275C117.592 110.158 112.069 104.098 105.336 99.6373C98.6027 95.1763 90.8692 92.453 82.8266 91.7107C74.784 90.9684 66.6827 92.2302 59.2469 95.3834C58.1763 77.3813 50.2672 60.4687 37.1378 48.1058C24.0084 35.743 6.65118 28.8643 -11.3827 28.8772C-23.3322 28.8723 -35.0874 31.9009 -45.5469 37.6791C-56.0064 43.4573 -64.828 51.7961 -71.1852 61.9143C-84.7471 55.6262 -99.5205 52.3816 -114.469 52.4081C-141.814 52.4146 -168.036 63.2827 -187.368 82.6217C-206.7 101.961 -217.559 128.187 -217.556 155.532C-217.581 168.882 -214.985 182.108 -209.914 194.457C-228.717 197.776 -245.75 207.615 -258.019 222.246C-270.288 236.876 -277.009 255.363 -277 274.457C-277 275.099 -277 275.692 -277 276.371V520.717H1795V170.099C1795 156.938 1792.41 143.905 1787.38 131.745C1782.34 119.585 1774.96 108.536 1765.66 99.2288C1756.35 89.9218 1745.3 82.5393 1733.14 77.5031C1720.98 72.4669 1707.95 69.8756 1694.79 69.8772Z" fill="#4F37FF" fill-opacity="0.05"/>
<path d="M2033.3 294.307V294.32V690.367H-37.3555V286.147C-37.3555 254.565 -24.8102 224.275 -2.47899 201.942C19.8522 179.608 50.1402 167.06 81.723 167.056C91.9695 167.053 102.173 168.372 112.083 170.979L112.659 171.131L112.855 170.568C120.804 147.778 134.952 127.657 153.709 112.466C172.465 97.2751 195.087 87.6164 219.031 84.5756C242.976 81.5348 267.293 85.2323 289.252 95.2527C311.21 105.273 329.938 121.219 343.332 141.299L343.686 141.83L344.221 141.48C350.813 137.174 358.262 134.348 366.053 133.199C373.844 132.049 381.791 132.604 389.347 134.824C396.902 137.043 403.887 140.876 409.818 146.057C415.749 151.237 420.485 157.643 423.701 164.832L423.972 165.438L424.57 165.148C438.366 158.464 453.593 155.269 468.912 155.843C484.232 156.418 499.176 160.744 512.433 168.443C525.69 176.142 536.854 186.978 544.945 200C553.036 213.021 557.806 227.83 558.837 243.125L558.885 243.837L559.588 243.717C562.9 243.154 566.253 242.868 569.613 242.863C582.607 242.859 595.248 247.103 605.608 254.949C615.968 262.794 623.479 273.812 626.997 286.322L627.129 286.792H627.617H629.228V290.014V290.986L630.124 290.608C641.654 285.738 654.074 283.327 666.589 283.53C679.104 283.733 691.439 286.545 702.805 291.786L703.319 292.023L703.621 291.544C710.537 280.555 720.764 272.045 732.827 267.242C744.89 262.439 758.167 261.59 770.744 264.818C783.321 268.045 794.548 275.182 802.808 285.201C811.067 295.22 815.933 307.602 816.702 320.563L816.757 321.478L817.599 321.118C822.815 318.891 828.43 317.751 834.101 317.767C845.274 317.8 855.977 322.263 863.865 330.177C871.752 338.09 876.18 348.809 876.176 359.982L876.176 359.986C876.188 361.625 876.09 363.263 875.885 364.889L875.708 366.282L876.879 365.508C893.912 354.248 914.148 348.84 934.526 350.101C954.905 351.363 974.32 359.224 989.834 372.498L990.811 373.334L990.896 372.051C991.717 359.714 995.327 347.725 1001.45 336.986C1007.58 326.247 1016.07 317.039 1026.27 310.056C1036.47 303.073 1048.13 298.497 1060.36 296.672C1072.59 294.848 1085.07 295.823 1096.87 299.524L1097.87 299.838L1097.7 298.803C1097.63 298.429 1097.57 298.059 1097.51 297.689C1097.25 296.204 1097 294.743 1096.85 293.236C1094.61 270.987 1100.4 248.668 1113.17 230.313C1125.94 211.958 1144.86 198.777 1166.5 193.152C1188.15 187.526 1211.09 189.826 1231.18 199.638C1251.28 209.449 1267.2 226.124 1276.08 246.65L1276.35 247.278L1276.96 246.97C1290.18 240.304 1305.33 238.537 1319.73 241.981L1320.21 242.096L1320.44 241.662C1326.06 231.3 1334.14 222.481 1343.97 215.983C1353.8 209.485 1365.08 205.508 1376.82 204.404C1388.55 203.299 1400.37 205.1 1411.25 209.648C1422.12 214.197 1431.7 221.352 1439.15 230.483L1440.01 231.538L1440.28 230.204C1443.93 212.208 1451.94 195.383 1463.6 181.205C1475.27 167.027 1490.24 155.929 1507.19 148.886C1524.15 141.843 1542.57 139.07 1560.85 140.81C1579.13 142.55 1596.7 148.751 1612.02 158.867L1613.19 159.635L1613.02 158.252C1612.78 156.303 1612.67 154.341 1612.68 152.377V152.374C1612.67 145.754 1613.97 139.199 1616.5 133.082C1619.03 126.965 1622.74 121.406 1627.42 116.724C1632.1 112.041 1637.66 108.326 1643.77 105.791C1649.89 103.256 1656.44 101.95 1663.06 101.948C1669.83 101.932 1676.52 103.291 1682.74 105.944L1683.58 106.303L1683.63 105.39C1684.57 89.9369 1690.38 75.1783 1700.24 63.2379C1710.09 51.2975 1723.48 42.7908 1738.47 38.9418C1753.47 35.0927 1769.3 36.0997 1783.69 41.8178C1798.07 47.536 1810.28 57.6705 1818.54 70.7633L1818.84 71.242L1819.35 71.0043C1838.86 61.9795 1860.62 59.0349 1881.82 62.5539C1903.02 66.0729 1922.66 75.8924 1938.2 90.7339C1953.74 105.575 1964.45 124.751 1968.94 145.765C1973.42 166.779 1971.48 188.657 1963.36 208.551L1963.06 209.29L1963.84 209.429C1983.33 212.867 2000.98 223.062 2013.69 238.222C2026.4 253.379 2033.36 272.529 2033.36 292.31C2033.33 292.983 2033.32 293.642 2033.3 294.307Z" fill="white" stroke="url(#paint0_linear_1_365)" stroke-width="1.28901"/>
<defs>
<linearGradient id="paint0_linear_1_365" x1="998" y1="36" x2="998" y2="691.011" gradientUnits="userSpaceOnUse">
<stop stop-color="#4F37FF" stop-opacity="0.1"/>
<stop offset="1" stop-color="#4F37FF" stop-opacity="0"/>
</linearGradient>
</defs>
</svg>
