<svg width="32" height="32" viewBox="0 0 32 32" fill="none" xmlns="http://www.w3.org/2000/svg">
<path d="M15.5052 2.6665C16.4271 2.6665 17.1719 3.4113 17.1719 4.33317V6.19255C17.2552 6.20296 17.3333 6.21338 17.4167 6.229C17.9688 6.31234 19.6094 6.57796 20.2865 6.74984C21.1771 6.9738 21.7188 7.88005 21.4948 8.77588C21.2708 9.67171 20.3646 10.2082 19.4688 9.98421C18.9844 9.85921 17.5104 9.61963 16.9219 9.53109C15.25 9.28109 13.8177 9.40609 12.8333 9.7863C11.8802 10.1509 11.4844 10.6665 11.3802 11.2446C11.2813 11.8019 11.3542 12.1196 11.4479 12.3175C11.5469 12.5259 11.7396 12.7603 12.1198 13.0155C12.9635 13.578 14.2604 13.9478 15.9375 14.4061L16.0833 14.4478C17.5625 14.8488 19.375 15.3436 20.7188 16.2342C21.4531 16.7238 22.1406 17.3853 22.5677 18.3019C23 19.229 23.0938 20.2707 22.8958 21.38C22.5365 23.3592 21.1719 24.6821 19.4792 25.3748C18.7656 25.6665 17.9896 25.854 17.1667 25.9478V27.6665C17.1667 28.5884 16.4219 29.3332 15.5 29.3332C14.5781 29.3332 13.8333 28.5884 13.8333 27.6665V25.8488C13.8125 25.8436 13.7865 25.8436 13.7656 25.8384H13.7552C12.4844 25.6405 10.3958 25.0936 8.98959 24.4686C8.14584 24.0936 7.77084 23.1092 8.14584 22.2707C8.52084 21.4321 9.50522 21.0519 10.3438 21.4269C11.4323 21.9113 13.224 22.3853 14.2604 22.5519C15.9219 22.7967 17.2917 22.6561 18.2188 22.2759C19.099 21.9165 19.5 21.3957 19.6146 20.7707C19.7135 20.2134 19.6406 19.8957 19.5469 19.6978C19.4479 19.4894 19.2552 19.255 18.875 18.9998C18.0313 18.4373 16.7344 18.0675 15.0573 17.6092L14.9115 17.5675C13.4323 17.1665 11.6198 16.6717 10.276 15.7811C9.54167 15.2915 8.85417 14.63 8.42709 13.7134C7.9948 12.7863 7.90105 11.7446 8.09897 10.6353C8.47397 8.60921 9.9323 7.31755 11.651 6.6613C12.3281 6.40088 13.0677 6.23421 13.8385 6.14046V4.33317C13.8385 3.4113 14.5833 2.6665 15.5052 2.6665Z" fill="#1202A4"/>
</svg>
