<svg width="24" height="24" viewBox="0 0 24 24" fill="none" xmlns="http://www.w3.org/2000/svg">
<path d="M11.7568 7.26465C9.27246 7.26465 7.26855 9.26855 7.26855 11.7529C7.26855 14.2373 9.27246 16.2412 11.7568 16.2412C14.2412 16.2412 16.2451 14.2373 16.2451 11.7529C16.2451 9.26855 14.2412 7.26465 11.7568 7.26465ZM11.7568 14.6709C10.1514 14.6709 8.83887 13.3623 8.83887 11.7529C8.83887 10.1436 10.1475 8.83496 11.7568 8.83496C13.3662 8.83496 14.6748 10.1436 14.6748 11.7529C14.6748 13.3623 13.3623 14.6709 11.7568 14.6709ZM17.4756 7.08105C17.4756 7.66309 17.0068 8.12793 16.4287 8.12793C15.8467 8.12793 15.3818 7.65918 15.3818 7.08105C15.3818 6.50293 15.8506 6.03418 16.4287 6.03418C17.0068 6.03418 17.4756 6.50293 17.4756 7.08105ZM20.4482 8.14355C20.3818 6.74121 20.0615 5.49902 19.0342 4.47559C18.0107 3.45215 16.7686 3.13184 15.3662 3.06152C13.9209 2.97949 9.58887 2.97949 8.14355 3.06152C6.74512 3.12793 5.50293 3.44824 4.47559 4.47168C3.44824 5.49512 3.13184 6.7373 3.06152 8.13965C2.97949 9.58496 2.97949 13.917 3.06152 15.3623C3.12793 16.7646 3.44824 18.0068 4.47559 19.0303C5.50293 20.0537 6.74121 20.374 8.14355 20.4443C9.58887 20.5264 13.9209 20.5264 15.3662 20.4443C16.7686 20.3779 18.0107 20.0576 19.0342 19.0303C20.0576 18.0068 20.3779 16.7646 20.4482 15.3623C20.5303 13.917 20.5303 9.58887 20.4482 8.14355ZM18.5811 16.9131C18.2764 17.6787 17.6865 18.2686 16.917 18.5771C15.7646 19.0342 13.0303 18.9287 11.7568 18.9287C10.4834 18.9287 7.74512 19.0303 6.59668 18.5771C5.83105 18.2725 5.24121 17.6826 4.93262 16.9131C4.47559 15.7607 4.58105 13.0264 4.58105 11.7529C4.58105 10.4795 4.47949 7.74121 4.93262 6.59277C5.2373 5.82715 5.82715 5.2373 6.59668 4.92871C7.74902 4.47168 10.4834 4.57715 11.7568 4.57715C13.0303 4.57715 15.7686 4.47559 16.917 4.92871C17.6826 5.2334 18.2725 5.82324 18.5811 6.59277C19.0381 7.74512 18.9326 10.4795 18.9326 11.7529C18.9326 13.0264 19.0381 15.7646 18.5811 16.9131Z" fill="white"/>
</svg>
