<svg width="32" height="32" viewBox="0 0 32 32" fill="none" xmlns="http://www.w3.org/2000/svg">
<path d="M16.5677 28.6667C19.2396 25.323 25.3334 17.2188 25.3334 12.6667C25.3334 7.14591 20.8542 2.66675 15.3334 2.66675C9.81254 2.66675 5.33337 7.14591 5.33337 12.6667C5.33337 17.2188 11.4271 25.323 14.099 28.6667C14.7396 29.4636 15.9271 29.4636 16.5677 28.6667ZM15.3334 16.0001C13.4948 16.0001 12 14.5053 12 12.6667C12 10.8282 13.4948 9.33341 15.3334 9.33341C17.1719 9.33341 18.6667 10.8282 18.6667 12.6667C18.6667 14.5053 17.1719 16.0001 15.3334 16.0001Z" fill="#1202A4"/>
</svg>
