<svg width="126" height="40" viewBox="0 0 126 40" fill="none" xmlns="http://www.w3.org/2000/svg">
<g clip-path="url(#clip0_1_370)">
<path d="M5.99881 40L0 5.96058L8.26445 4.50323C9.01103 4.37166 9.78014 4.48921 10.4534 4.8378C11.1267 5.1864 11.6668 5.74671 11.9907 6.43252L22.1695 27.9952L25.5859 11.0412L35.8407 9.23235L40.1991 33.9672L33.5267 35.1436L30.0425 15.3745L26.2595 36.4251L20.4834 37.4438L7.65447 10.5693L12.6339 38.8292L5.99881 40Z" fill="#00FF8C"/>
<path d="M41.6928 23.849C40.6471 17.92 44.1188 13.1009 49.9323 12.0753C56.8012 10.8643 61.136 15.1201 61.6561 21.8464L48.4827 24.1701C49.0706 27.0654 50.718 28.0204 52.718 27.6675C54.7928 27.3021 55.6227 25.7935 56.0114 24.0497L62.3477 24.9161C61.6008 27.9692 59.3752 31.2437 53.5244 32.2762C47.3347 33.3682 42.8048 30.2002 41.6872 23.849M54.5673 19.2016C54.0874 17.1062 52.6655 16.0723 50.729 16.4128C48.8424 16.745 47.834 18.0916 47.9627 20.3669L54.5673 19.2016Z" fill="#00FF8C"/>
<path d="M65.7952 29.45L62.4548 10.4892L68.8714 9.35713L69.4011 12.341C69.8268 11.1362 70.5665 10.0671 71.5436 9.2442C72.5206 8.4213 73.6997 7.8745 74.9587 7.66035C79.2244 6.90745 81.7363 9.19244 82.4749 13.4219L84.7115 26.1132L78.0722 27.2855L76.0404 15.837C75.6752 13.761 74.4898 12.9957 72.942 13.2683C70.148 13.761 70.4039 16.7532 70.7096 18.4915L72.4441 28.2778L65.7952 29.45Z" fill="#00FF8C"/>
<path d="M95.4636 24.2159C92.0278 24.8221 89.7747 23.0768 89.1827 19.7151L87.6114 10.8021L83.7994 11.4748L82.9874 6.86741L86.7995 6.19479L85.9115 1.15287L92.4414 0L93.3308 5.04191L97.8593 4.24335L98.6712 8.85068L94.1427 9.65064L95.5259 17.5394C95.6988 18.5221 96.2382 18.9331 97.2576 18.7532L101.229 18.0515L102.107 23.0339L95.4636 24.2159Z" fill="#00FF8C"/>
<path d="M103.378 17.7565C102.512 12.8461 107.39 10.0393 114.09 8.31071L113.971 7.63116C113.711 6.15859 112.726 5.43614 110.878 5.76277C108.803 6.12814 107.962 7.32807 107.878 9.05668L101.583 9.11619C101.413 5.71848 104.457 2.45501 110.271 1.42947C115.895 0.437144 119.618 2.35121 120.496 7.33637L121.588 13.5311C121.747 14.4377 121.945 14.6757 122.851 14.5152L124.324 14.255L125.154 18.9772L120.774 19.7495C118.397 20.1647 117.084 19.3495 116.514 17.6582C115.799 19.3426 113.98 21.6095 110.546 22.2157C106.811 22.8759 103.983 21.193 103.377 17.7565M114.895 12.8807L114.689 11.7098C111.622 12.6412 109.331 13.7858 109.709 15.9379C109.908 17.07 110.782 17.6167 112.142 17.3773C113.991 17.0507 115.358 15.5255 114.892 12.8807" fill="#00FF8C"/>
</g>
<defs>
<clipPath id="clip0_1_370">
<rect width="125.154" height="40" fill="white"/>
</clipPath>
</defs>
</svg>
