<svg width="32" height="32" viewBox="0 0 32 32" fill="none" xmlns="http://www.w3.org/2000/svg">
<path d="M24.9953 12.8889C26.5787 12.8889 29.3333 14.2315 29.3333 15.8519C29.3333 17.5185 26.5787 18.8148 24.9953 18.8148H19.5972L14.9444 26.9583C14.6805 27.4213 14.1898 27.7037 13.6574 27.7037H11.0555C10.5648 27.7037 10.2083 27.2315 10.3426 26.7593L12.6111 18.8148H7.85181L5.85181 21.4815C5.71292 21.6667 5.4907 21.7778 5.25922 21.7778H3.31477C2.95366 21.7778 2.66663 21.4861 2.66663 21.1296C2.66663 21.0694 2.67589 21.0093 2.68977 20.9491L4.14811 15.8519L2.68977 10.7546C2.67126 10.6944 2.66663 10.6343 2.66663 10.5741C2.66663 10.213 2.95829 9.92593 3.31477 9.92593H5.25922C5.4907 9.92593 5.71292 10.037 5.85181 10.2222L7.85181 12.8889H12.6157L10.3472 4.94444C10.2083 4.47222 10.5648 4 11.0555 4H13.6574C14.1898 4 14.6805 4.28704 14.9444 4.74537L19.5972 12.8889H24.9953Z" fill="#1202A4"/>
</svg>
