<svg width="32" height="32" viewBox="0 0 32 32" fill="none" xmlns="http://www.w3.org/2000/svg">
<path d="M1.84801 12.2512C1.56422 10.6418 2.64201 9.10252 4.25144 8.81874L24.6771 5.21715C26.2865 4.93336 27.8258 6.01115 28.1095 7.62058L28.7527 11.268C27.5445 11.4811 26.7371 12.6342 26.9501 13.8424C27.1632 15.0506 28.3162 15.858 29.5245 15.6449L30.1676 19.2924C30.4514 20.9018 29.3736 22.4411 27.7642 22.7248L7.33852 26.3264C5.72909 26.6102 4.18985 25.5324 3.90606 23.923L3.26292 20.2756C4.47113 20.0625 5.27854 18.9094 5.0655 17.7012C4.85246 16.493 3.69936 15.6856 2.49115 15.8986L1.84801 12.2512Z" fill="#1202A4"/>
<path d="M9.51965 17.3672L22.6504 15.0519" stroke="white" stroke-width="1.5" stroke-linecap="square" stroke-dasharray="3 3"/>
</svg>
