<svg width="24" height="24" viewBox="0 0 24 24" fill="none" xmlns="http://www.w3.org/2000/svg">
<path d="M20.4949 10.1996C18.7752 10.2037 17.0976 9.6674 15.6992 8.66641V15.6477C15.6987 16.9407 15.3035 18.2027 14.5664 19.265C13.8293 20.3274 12.7855 21.1393 11.5745 21.5924C10.3634 22.0455 9.04293 22.118 7.78956 21.8003C6.53619 21.4826 5.40968 20.7899 4.56066 19.8147C3.71163 18.8395 3.18056 17.6283 3.03847 16.3431C2.89637 15.058 3.15001 13.76 3.76548 12.6229C4.38095 11.4858 5.32891 10.5637 6.4826 9.97983C7.6363 9.39601 8.94073 9.17832 10.2215 9.35586V12.8672C9.63541 12.6828 9.00607 12.6884 8.42334 12.8831C7.84061 13.0777 7.33429 13.4515 6.97668 13.9511C6.61907 14.4507 6.42847 15.0505 6.43209 15.6649C6.43571 16.2793 6.63336 16.8768 6.99683 17.3721C7.3603 17.8675 7.87099 18.2353 8.45597 18.4231C9.04096 18.6109 9.67032 18.609 10.2542 18.4178C10.838 18.2265 11.3466 17.8557 11.7071 17.3582C12.0676 16.8607 12.2617 16.262 12.2617 15.6477V2H15.6992C15.6968 2.29029 15.7212 2.58018 15.7719 2.86602C15.8913 3.50409 16.1397 4.1111 16.5018 4.6499C16.8639 5.1887 17.3321 5.64796 17.8777 5.99961C18.6541 6.51293 19.5642 6.78652 20.4949 6.78633V10.1996Z" fill="white"/>
</svg>
