<svg width="24" height="24" viewBox="0 0 24 24" fill="none" xmlns="http://www.w3.org/2000/svg">
<path d="M21.5667 7.08622C21.3486 6.26503 20.7061 5.6183 19.8902 5.39882C18.4114 5 12.4815 5 12.4815 5C12.4815 5 6.55163 5 5.07278 5.39882C4.25691 5.61833 3.61434 6.26503 3.39625 7.08622C3 8.57465 3 11.6801 3 11.6801C3 11.6801 3 14.7856 3.39625 16.2741C3.61434 17.0952 4.25691 17.715 5.07278 17.9345C6.55163 18.3333 12.4815 18.3333 12.4815 18.3333C12.4815 18.3333 18.4114 18.3333 19.8902 17.9345C20.7061 17.715 21.3486 17.0952 21.5667 16.2741C21.963 14.7856 21.963 11.6801 21.963 11.6801C21.963 11.6801 21.963 8.57465 21.5667 7.08622ZM10.5421 14.4997V8.86059L15.4983 11.6802L10.5421 14.4997Z" fill="white"/>
</svg>
