<svg xmlns="http://www.w3.org/2000/svg" style="display: none;"><symbol id="icon-calendar-day-solid" viewBox="0 0 24 24"><title>calendar day solid</title><g class="nc-icon-wrapper"><path d="M8 2c.691 0 1.25.559 1.25 1.25V4.5h5V3.25c0-.691.559-1.25 1.25-1.25s1.25.559 1.25 1.25V4.5h1.875c1.035 0 1.875.84 1.875 1.875V8.25H3V6.375C3 5.34 3.84 4.5 4.875 4.5H6.75V3.25C6.75 2.559 7.309 2 8 2zM3 9.5h17.5v10.625c0 1.035-.84 1.875-1.875 1.875H4.875A1.875 1.875 0 0 1 3 20.125V9.5zM6.125 12a.627.627 0 0 0-.625.625v3.75c0 .344.281.625.625.625h3.75a.627.627 0 0 0 .625-.625v-3.75A.627.627 0 0 0 9.875 12h-3.75z" fill="currentColor" stroke="none"></path></g></symbol><symbol id="icon-arrow-right" viewBox="0 0 16 13"><title>arrow right</title><g fill="none" class="nc-icon-wrapper" stroke="none"><path d="M15.225 7.136c.366-.489.366-1.282 0-1.77l-3.75-5c-.367-.488-.961-.488-1.327 0-.367.488-.367 1.281 0 1.77l2.15 2.867H1.438c-.52 0-.938.559-.938 1.25s.419 1.25.938 1.25h10.86l-2.15 2.867c-.367.488-.367 1.281 0 1.77.366.488.96.488 1.327 0l3.75-5v-.004z" fill="#4F37FF"></path></g></symbol><symbol id="icon-caret-left" viewBox="0 0 11 18"><title>caret left</title><g fill="none" class="nc-icon-wrapper" stroke="none"><path d="M.366 7.87a1.252 1.252 0 0 0 0 1.77l7.5 7.5a1.252 1.252 0 0 0 1.77-1.77L3.019 8.753l6.613-6.617a1.252 1.252 0 0 0-1.77-1.77l-7.5 7.5.004.004z" fill="#4F37FF"></path></g></symbol><symbol id="icon-user-solid" viewBox="0 0 24 24"><title>user solid</title><g class="nc-icon-wrapper"><path d="M11.75 12a5 5 0 1 0 0-10 5 5 0 0 0 0 10zm-1.785 1.875A6.963 6.963 0 0 0 3 20.84c0 .64.52 1.16 1.16 1.16h15.18c.64 0 1.16-.52 1.16-1.16a6.963 6.963 0 0 0-6.965-6.965h-3.57z" fill="currentColor" stroke="none"></path></g></symbol><symbol id="icon-clock-solid" viewBox="0 0 24 24"><title>clock solid</title><g class="nc-icon-wrapper"><path d="M12 22C6.477 22 2 17.523 2 12S6.477 2 12 2s10 4.477 10 10-4.477 10-10 10zm-.938-15.313V12c0 .313.157.605.418.781l3.75 2.5a.935.935 0 0 0 1.301-.261.934.934 0 0 0-.261-1.301L12.938 11.5V6.687A.935.935 0 0 0 12 5.75a.935.935 0 0 0-.938.938z" fill="currentColor" stroke="none"></path></g></symbol></svg>